<svg width="496" height="417" viewBox="0 0 496 417" fill="none" xmlns="http://www.w3.org/2000/svg">
<path fill-rule="evenodd" clip-rule="evenodd" d="M28.1076 152.796L49.3307 165.518L120.82 124.327V14.2747L134.365 22.1806L134.383 22.1517L142.628 27.0033L148.869 30.6458L148.869 30.6753L195 57.8202V91.0211V167.071L170.2 181.16V181.356L146.942 194.744L96.645 223.698L72.2366 208.872L167.509 153.977L167.58 73.7694L148.6 61.8282L147.947 137.772L133.554 145.892L69.4499 182.232L49.6205 194.493L0 166.288V56.4446L97.9634 0V28.9284L28.1076 68.5284V152.796ZM49.4414 83.7223L97.0517 56.4247V108.307L49.4414 135.106V83.7223Z" fill="#3096A7" fill-opacity="0.05"/>
<path fill-rule="evenodd" clip-rule="evenodd" d="M122.108 337.796L143.331 350.518L214.82 309.327V199.275L228.365 207.181L228.383 207.152L236.628 212.003L242.869 215.646L242.869 215.675L289 242.82V276.021V352.071L264.2 366.16V366.356L240.942 379.744L190.645 408.698L166.237 393.872L261.509 338.977L261.58 258.769L242.6 246.828L241.947 322.772L227.554 330.892L163.45 367.232L143.62 379.493L94 351.288V241.445L191.963 185V213.928L122.108 253.528V337.796ZM143.441 268.722L191.052 241.425V293.307L143.441 320.106V268.722Z" fill="#3096A7" fill-opacity="0.02"/>
<path fill-rule="evenodd" clip-rule="evenodd" d="M235.108 164.796L256.331 177.518L327.82 136.327V26.2747L341.365 34.1806L341.383 34.1517L349.628 39.0033L355.869 42.6458L355.869 42.6753L402 69.8202V103.021V179.071L377.2 193.16V193.356L353.942 206.744L303.645 235.698L279.237 220.872L374.509 165.977L374.58 85.7694L355.6 73.8282L354.947 149.772L340.554 157.892L276.45 194.232L256.62 206.493L207 178.288V68.4446L304.963 12V40.9284L235.108 80.5284V164.796ZM256.441 95.7223L304.052 68.4247V120.307L256.441 147.106V95.7223Z" fill="#3096A7" fill-opacity="0.02"/>
<path fill-rule="evenodd" clip-rule="evenodd" d="M329.108 345.796L350.331 358.518L421.82 317.327V207.275L435.365 215.181L435.383 215.152L443.628 220.003L449.869 223.646L449.869 223.675L496 250.82V284.021V360.071L471.2 374.16V374.356L447.942 387.744L397.645 416.698L373.237 401.872L468.509 346.977L468.58 266.769L449.6 254.828L448.947 330.772L434.554 338.892L370.45 375.232L350.62 387.493L301 359.288V249.445L398.963 193V221.928L329.108 261.528V345.796ZM350.441 276.722L398.052 249.425V301.307L350.441 328.106V276.722Z" fill="#3096A7" fill-opacity="0.01"/>
</svg>
