<svg width="496" height="423" viewBox="0 0 496 423" fill="none" xmlns="http://www.w3.org/2000/svg">
<path fill-rule="evenodd" clip-rule="evenodd" d="M467.892 152.796L446.669 165.518L375.18 124.327V14.2747L361.635 22.1806L361.617 22.1517L353.372 27.0033L347.131 30.6458L347.131 30.6753L301 57.8202V91.0211V167.071L325.8 181.16V181.356L349.058 194.744L399.355 223.698L423.763 208.872L328.491 153.977L328.42 73.7694L347.4 61.8282L348.053 137.772L362.446 145.892L426.55 182.232L446.38 194.493L496 166.288V56.4446L398.037 0V28.9284L467.892 68.5284V152.796ZM446.559 83.7223L398.948 56.4247V108.307L446.559 135.106V83.7223Z" fill="#3096A7" fill-opacity="0.05"/>
<path fill-rule="evenodd" clip-rule="evenodd" d="M373.892 337.796L352.669 350.518L281.18 309.327V199.275L267.635 207.181L267.617 207.152L259.372 212.003L253.131 215.646L253.131 215.675L207 242.82V276.021V352.071L231.8 366.16V366.356L255.058 379.744L305.355 408.698L329.763 393.872L234.491 338.977L234.42 258.769L253.4 246.828L254.053 322.772L268.446 330.892L332.55 367.232L352.38 379.493L402 351.288V241.445L304.037 185V213.928L373.892 253.528V337.796ZM352.559 268.722L304.948 241.425V293.307L352.559 320.106V268.722Z" fill="#3096A7" fill-opacity="0.02"/>
<path fill-rule="evenodd" clip-rule="evenodd" d="M260.892 164.796L239.669 177.518L168.18 136.327V26.2747L154.635 34.1806L154.617 34.1517L146.372 39.0033L140.131 42.6458L140.131 42.6753L94 69.8202V103.021V179.071L118.8 193.16V193.356L142.058 206.744L192.355 235.698L216.763 220.872L121.491 165.977L121.42 85.7694L140.4 73.8282L141.053 149.772L155.446 157.892L219.55 194.232L239.38 206.493L289 178.288V68.4446L191.037 12V40.9284L260.892 80.5284V164.796ZM239.559 95.7223L191.948 68.4247V120.307L239.559 147.106V95.7223Z" fill="#3096A7" fill-opacity="0.02"/>
<path fill-rule="evenodd" clip-rule="evenodd" d="M166.892 351.796L145.669 364.518L74.1797 323.327V213.275L60.6346 221.181L60.6169 221.152L52.3719 226.003L46.1312 229.646L46.1314 229.675L0 256.82V290.021V366.071L24.8 380.16V380.356L48.0576 393.744L98.355 422.698L122.763 407.872L27.4905 352.977L27.4201 272.769L46.3995 260.828L47.0531 336.772L61.4458 344.892L125.55 381.232L145.38 393.493L195 365.288V255.445L97.0366 199V227.928L166.892 267.528V351.796ZM145.559 282.722L97.9483 255.425V307.307L145.559 334.106V282.722Z" fill="#3096A7" fill-opacity="0.01"/>
</svg>
