<svg width="550" height="668" viewBox="0 0 550 668" fill="none" xmlns="http://www.w3.org/2000/svg">
<path fill-rule="evenodd" clip-rule="evenodd" d="M119.189 498.504L111.027 494.466L83.5306 507.54V542.469L78.321 539.96L78.3142 539.969L75.143 538.429L72.7428 537.273L72.7429 537.264L55 528.648V518.111V493.973L64.5385 489.501V489.439L73.4837 485.19L92.8289 476L102.217 480.706L65.5733 498.129L65.5462 523.586L72.846 527.376L73.0973 503.272L78.633 500.695L103.289 489.161L110.915 485.269L130 494.221V529.085L92.3218 547V537.818L119.189 525.25V498.504ZM110.984 520.427L92.6724 529.091V512.624L110.984 504.118V520.427Z" fill="#3096A7" fill-opacity="0.05"/>
<path fill-rule="evenodd" clip-rule="evenodd" d="M160.189 440.504L152.027 436.466L124.531 449.54V484.469L119.321 481.96L119.314 481.969L116.143 480.429L113.743 479.273L113.743 479.264L96 470.648V460.111V435.973L105.538 431.501V431.439L114.484 427.19L133.829 418L143.217 422.706L106.573 440.129L106.546 465.586L113.846 469.376L114.097 445.272L119.633 442.695L144.289 431.161L151.915 427.269L171 436.221V471.085L133.322 489V479.818L160.189 467.25V440.504ZM151.984 462.427L133.672 471.091V454.624L151.984 446.118V462.427Z" fill="#3096A7" fill-opacity="0.04"/>
<path fill-rule="evenodd" clip-rule="evenodd" d="M244.189 440.504L236.027 436.466L208.531 449.54V484.469L203.321 481.96L203.314 481.969L200.143 480.429L197.743 479.273L197.743 479.264L180 470.648V460.111V435.973L189.538 431.501V431.439L198.484 427.19L217.829 418L227.217 422.706L190.573 440.129L190.546 465.586L197.846 469.376L198.097 445.272L203.633 442.695L228.289 431.161L235.915 427.269L255 436.221V471.085L217.322 489V479.818L244.189 467.25V440.504ZM235.984 462.427L217.672 471.091V454.624L235.984 446.118V462.427Z" fill="#3096A7" fill-opacity="0.03"/>
<path fill-rule="evenodd" clip-rule="evenodd" d="M328.189 440.504L320.027 436.466L292.531 449.54V484.469L287.321 481.96L287.314 481.969L284.143 480.429L281.743 479.273L281.743 479.264L264 470.648V460.111V435.973L273.538 431.501V431.439L282.484 427.19L301.829 418L311.217 422.706L274.573 440.129L274.546 465.586L281.846 469.376L282.097 445.272L287.633 442.695L312.289 431.161L319.915 427.269L339 436.221V471.085L301.322 489V479.818L328.189 467.25V440.504ZM319.984 462.427L301.672 471.091V454.624L319.984 446.118V462.427Z" fill="#3096A7" fill-opacity="0.02"/>
<path fill-rule="evenodd" clip-rule="evenodd" d="M412.189 440.504L404.027 436.466L376.531 449.54V484.469L371.321 481.96L371.314 481.969L368.143 480.429L365.743 479.273L365.743 479.264L348 470.648V460.111V435.973L357.538 431.501V431.439L366.484 427.19L385.829 418L395.217 422.706L358.573 440.129L358.546 465.586L365.846 469.376L366.097 445.272L371.633 442.695L396.289 431.161L403.915 427.269L423 436.221V471.085L385.322 489V479.818L412.189 467.25V440.504ZM403.984 462.427L385.672 471.091V454.624L403.984 446.118V462.427Z" fill="#3096A7" fill-opacity="0.01"/>
<path fill-rule="evenodd" clip-rule="evenodd" d="M201.189 501.504L193.027 497.466L165.531 510.54V545.469L160.321 542.96L160.314 542.969L157.143 541.429L154.743 540.273L154.743 540.264L137 531.648V521.111V496.973L146.538 492.501V492.439L155.484 488.19L174.829 479L184.217 483.706L147.573 501.129L147.546 526.586L154.846 530.376L155.097 506.272L160.633 503.695L185.289 492.161L192.915 488.269L212 497.221V532.085L174.322 550V540.818L201.189 528.25V501.504ZM192.984 523.427L174.672 532.091V515.624L192.984 507.118V523.427Z" fill="#3096A7" fill-opacity="0.04"/>
<path fill-rule="evenodd" clip-rule="evenodd" d="M285.189 501.504L277.027 497.466L249.531 510.54V545.469L244.321 542.96L244.314 542.969L241.143 541.429L238.743 540.273L238.743 540.264L221 531.648V521.111V496.973L230.538 492.501V492.439L239.484 488.19L258.829 479L268.217 483.706L231.573 501.129L231.546 526.586L238.846 530.376L239.097 506.272L244.633 503.695L269.289 492.161L276.915 488.269L296 497.221V532.085L258.322 550V540.818L285.189 528.25V501.504ZM276.984 523.427L258.672 532.091V515.624L276.984 507.118V523.427Z" fill="#3096A7" fill-opacity="0.03"/>
<path fill-rule="evenodd" clip-rule="evenodd" d="M369.189 501.504L361.027 497.466L333.531 510.54V545.469L328.321 542.96L328.314 542.969L325.143 541.429L322.743 540.273L322.743 540.264L305 531.648V521.111V496.973L314.538 492.501V492.439L323.484 488.19L342.829 479L352.217 483.706L315.573 501.129L315.546 526.586L322.846 530.376L323.097 506.272L328.633 503.695L353.289 492.161L360.915 488.269L380 497.221V532.085L342.322 550V540.818L369.189 528.25V501.504ZM360.984 523.427L342.672 532.091V515.624L360.984 507.118V523.427Z" fill="#3096A7" fill-opacity="0.02"/>
<path fill-rule="evenodd" clip-rule="evenodd" d="M453.189 501.504L445.027 497.466L417.531 510.54V545.469L412.321 542.96L412.314 542.969L409.143 541.429L406.743 540.273L406.743 540.264L389 531.648V521.111V496.973L398.538 492.501V492.439L407.484 488.19L426.829 479L436.217 483.706L399.573 501.129L399.546 526.586L406.846 530.376L407.097 506.272L412.633 503.695L437.289 492.161L444.915 488.269L464 497.221V532.085L426.322 550V540.818L453.189 528.25V501.504ZM444.984 523.427L426.672 532.091V515.624L444.984 507.118V523.427Z" fill="#3096A7" fill-opacity="0.01"/>
<path fill-rule="evenodd" clip-rule="evenodd" d="M242.189 562.504L234.027 558.466L206.531 571.54V606.469L201.321 603.96L201.314 603.969L198.143 602.429L195.743 601.273L195.743 601.264L178 592.648V582.111V557.973L187.538 553.501V553.439L196.484 549.19L215.829 540L225.217 544.706L188.573 562.129L188.546 587.586L195.846 591.376L196.097 567.272L201.633 564.695L226.289 553.161L233.915 549.269L253 558.221V593.085L215.322 611V601.818L242.189 589.25V562.504ZM233.984 584.427L215.672 593.091V576.624L233.984 568.118V584.427Z" fill="#3096A7" fill-opacity="0.04"/>
<path fill-rule="evenodd" clip-rule="evenodd" d="M326.189 562.504L318.027 558.466L290.531 571.54V606.469L285.321 603.96L285.314 603.969L282.143 602.429L279.743 601.273L279.743 601.264L262 592.648V582.111V557.973L271.538 553.501V553.439L280.484 549.19L299.829 540L309.217 544.706L272.573 562.129L272.546 587.586L279.846 591.376L280.097 567.272L285.633 564.695L310.289 553.161L317.915 549.269L337 558.221V593.085L299.322 611V601.818L326.189 589.25V562.504ZM317.984 584.427L299.672 593.091V576.624L317.984 568.118V584.427Z" fill="#3096A7" fill-opacity="0.03"/>
<path fill-rule="evenodd" clip-rule="evenodd" d="M410.189 562.504L402.027 558.466L374.531 571.54V606.469L369.321 603.96L369.314 603.969L366.143 602.429L363.743 601.273L363.743 601.264L346 592.648V582.111V557.973L355.538 553.501V553.439L364.484 549.19L383.829 540L393.217 544.706L356.573 562.129L356.546 587.586L363.846 591.376L364.097 567.272L369.633 564.695L394.289 553.161L401.915 549.269L421 558.221V593.085L383.322 611V601.818L410.189 589.25V562.504ZM401.984 584.427L383.672 593.091V576.624L401.984 568.118V584.427Z" fill="#3096A7" fill-opacity="0.02"/>
<path fill-rule="evenodd" clip-rule="evenodd" d="M494.189 562.504L486.027 558.466L458.531 571.54V606.469L453.321 603.96L453.314 603.969L450.143 602.429L447.743 601.273L447.743 601.264L430 592.648V582.111V557.973L439.538 553.501V553.439L448.484 549.19L467.829 540L477.217 544.706L440.573 562.129L440.546 587.586L447.846 591.376L448.097 567.272L453.633 564.695L478.289 553.161L485.915 549.269L505 558.221V593.085L467.322 611V601.818L494.189 589.25V562.504ZM485.984 584.427L467.672 593.091V576.624L485.984 568.118V584.427Z" fill="#3096A7" fill-opacity="0.01"/>
<path fill-rule="evenodd" clip-rule="evenodd" d="M158.189 559.504L150.027 555.466L122.531 568.54V603.469L117.321 600.96L117.314 600.969L114.143 599.429L111.743 598.273L111.743 598.264L94 589.648V579.111V554.973L103.538 550.501V550.439L112.484 546.19L131.829 537L141.217 541.706L104.573 559.129L104.546 584.586L111.846 588.376L112.097 564.272L117.633 561.695L142.289 550.161L149.915 546.269L169 555.221V590.085L131.322 608V598.818L158.189 586.25V559.504ZM149.984 581.427L131.672 590.091V573.624L149.984 565.118V581.427Z" fill="#3096A7" fill-opacity="0.05"/>
<path fill-rule="evenodd" clip-rule="evenodd" d="M74.1894 556.504L66.0266 552.466L38.5306 565.54V600.469L33.321 597.96L33.3142 597.969L30.143 596.429L27.7428 595.273L27.7429 595.264L10 586.648V576.111V551.973L19.5385 547.501V547.439L28.4837 543.19L47.8289 534L57.2167 538.706L20.5733 556.129L20.5462 581.586L27.846 585.376L28.0973 561.272L33.633 558.695L58.2885 547.161L65.9152 543.269L85 552.221V587.085L47.3218 605V595.818L74.1894 583.25V556.504ZM65.9841 578.427L47.6724 587.091V570.624L65.9841 562.118V578.427Z" fill="#3096A7" fill-opacity="0.05"/>
<path fill-rule="evenodd" clip-rule="evenodd" d="M197.189 619.504L189.027 615.466L161.531 628.54V663.469L156.321 660.96L156.314 660.969L153.143 659.429L150.743 658.273L150.743 658.264L133 649.648V639.111V614.973L142.538 610.501V610.439L151.484 606.19L170.829 597L180.217 601.706L143.573 619.129L143.546 644.586L150.846 648.376L151.097 624.272L156.633 621.695L181.289 610.161L188.915 606.269L208 615.221V650.085L170.322 668V658.818L197.189 646.25V619.504ZM188.984 641.427L170.672 650.091V633.624L188.984 625.118V641.427Z" fill="#3096A7" fill-opacity="0.05"/>
<path fill-rule="evenodd" clip-rule="evenodd" d="M287.189 619.504L279.027 615.466L251.531 628.54V663.469L246.321 660.96L246.314 660.969L243.143 659.429L240.743 658.273L240.743 658.264L223 649.648V639.111V614.973L232.538 610.501V610.439L241.484 606.19L260.829 597L270.217 601.706L233.573 619.129L233.546 644.586L240.846 648.376L241.097 624.272L246.633 621.695L271.289 610.161L278.915 606.269L298 615.221V650.085L260.322 668V658.818L287.189 646.25V619.504ZM278.984 641.427L260.672 650.091V633.624L278.984 625.118V641.427Z" fill="#3096A7" fill-opacity="0.04"/>
<path fill-rule="evenodd" clip-rule="evenodd" d="M371.189 619.504L363.027 615.466L335.531 628.54V663.469L330.321 660.96L330.314 660.969L327.143 659.429L324.743 658.273L324.743 658.264L307 649.648V639.111V614.973L316.538 610.501V610.439L325.484 606.19L344.829 597L354.217 601.706L317.573 619.129L317.546 644.586L324.846 648.376L325.097 624.272L330.633 621.695L355.289 610.161L362.915 606.269L382 615.221V650.085L344.322 668V658.818L371.189 646.25V619.504ZM362.984 641.427L344.672 650.091V633.624L362.984 625.118V641.427Z" fill="#3096A7" fill-opacity="0.03"/>
<path fill-rule="evenodd" clip-rule="evenodd" d="M455.189 619.504L447.027 615.466L419.531 628.54V663.469L414.321 660.96L414.314 660.969L411.143 659.429L408.743 658.273L408.743 658.264L391 649.648V639.111V614.973L400.538 610.501V610.439L409.484 606.19L428.829 597L438.217 601.706L401.573 619.129L401.546 644.586L408.846 648.376L409.097 624.272L414.633 621.695L439.289 610.161L446.915 606.269L466 615.221V650.085L428.322 668V658.818L455.189 646.25V619.504ZM446.984 641.427L428.672 650.091V633.624L446.984 625.118V641.427Z" fill="#3096A7" fill-opacity="0.02"/>
<path fill-rule="evenodd" clip-rule="evenodd" d="M539.189 619.504L531.027 615.466L503.531 628.54V663.469L498.321 660.96L498.314 660.969L495.143 659.429L492.743 658.273L492.743 658.264L475 649.648V639.111V614.973L484.538 610.501V610.439L493.484 606.19L512.829 597L522.217 601.706L485.573 619.129L485.546 644.586L492.846 648.376L493.097 624.272L498.633 621.695L523.289 610.161L530.915 606.269L550 615.221V650.085L512.322 668V658.818L539.189 646.25V619.504ZM530.984 641.427L512.672 650.091V633.624L530.984 625.118V641.427Z" fill="#3096A7" fill-opacity="0.01"/>
<path fill-rule="evenodd" clip-rule="evenodd" d="M114.189 616.504L106.027 612.466L78.5306 625.54V660.469L73.321 657.96L73.3142 657.969L70.143 656.429L67.7428 655.273L67.7429 655.264L50 646.648V636.111V611.973L59.5385 607.501V607.439L68.4837 603.19L87.8289 594L97.2167 598.706L60.5733 616.129L60.5462 641.586L67.846 645.376L68.0973 621.272L73.633 618.695L98.2885 607.161L105.915 603.269L125 612.221V647.085L87.3218 665V655.818L114.189 643.25V616.504ZM105.984 638.427L87.6724 647.091V630.624L105.984 622.118V638.427Z" fill="#3096A7" fill-opacity="0.05"/>
<path fill-rule="evenodd" clip-rule="evenodd" d="M119.189 381.504L111.027 377.466L83.5306 390.54V425.469L78.321 422.96L78.3142 422.969L75.143 421.429L72.7428 420.273L72.7429 420.264L55 411.648V401.111V376.973L64.5385 372.501V372.439L73.4837 368.19L92.8289 359L102.217 363.706L65.5733 381.129L65.5462 406.586L72.846 410.376L73.0973 386.272L78.633 383.695L103.289 372.161L110.915 368.269L130 377.221V412.085L92.3218 430V420.818L119.189 408.25V381.504ZM110.984 403.427L92.6724 412.091V395.624L110.984 387.118V403.427Z" fill="#3096A7" fill-opacity="0.04"/>
<path fill-rule="evenodd" clip-rule="evenodd" d="M203.189 381.504L195.027 377.466L167.531 390.54V425.469L162.321 422.96L162.314 422.969L159.143 421.429L156.743 420.273L156.743 420.264L139 411.648V401.111V376.973L148.538 372.501V372.439L157.484 368.19L176.829 359L186.217 363.706L149.573 381.129L149.546 406.586L156.846 410.376L157.097 386.272L162.633 383.695L187.289 372.161L194.915 368.269L214 377.221V412.085L176.322 430V420.818L203.189 408.25V381.504ZM194.984 403.427L176.672 412.091V395.624L194.984 387.118V403.427Z" fill="#3096A7" fill-opacity="0.03"/>
<path fill-rule="evenodd" clip-rule="evenodd" d="M287.189 381.504L279.027 377.466L251.531 390.54V425.469L246.321 422.96L246.314 422.969L243.143 421.429L240.743 420.273L240.743 420.264L223 411.648V401.111V376.973L232.538 372.501V372.439L241.484 368.19L260.829 359L270.217 363.706L233.573 381.129L233.546 406.586L240.846 410.376L241.097 386.272L246.633 383.695L271.289 372.161L278.915 368.269L298 377.221V412.085L260.322 430V420.818L287.189 408.25V381.504ZM278.984 403.427L260.672 412.091V395.624L278.984 387.118V403.427Z" fill="#3096A7" fill-opacity="0.02"/>
<path fill-rule="evenodd" clip-rule="evenodd" d="M371.189 381.504L363.027 377.466L335.531 390.54V425.469L330.321 422.96L330.314 422.969L327.143 421.429L324.743 420.273L324.743 420.264L307 411.648V401.111V376.973L316.538 372.501V372.439L325.484 368.19L344.829 359L354.217 363.706L317.573 381.129L317.546 406.586L324.846 410.376L325.097 386.272L330.633 383.695L355.289 372.161L362.915 368.269L382 377.221V412.085L344.322 430V420.818L371.189 408.25V381.504ZM362.984 403.427L344.672 412.091V395.624L362.984 387.118V403.427Z" fill="#3096A7" fill-opacity="0.01"/>
<path fill-rule="evenodd" clip-rule="evenodd" d="M77.1894 322.504L69.0266 318.466L41.5306 331.54V366.469L36.321 363.96L36.3142 363.969L33.143 362.429L30.7428 361.273L30.7429 361.264L13 352.648V342.111V317.973L22.5385 313.501V313.439L31.4837 309.19L50.8289 300L60.2167 304.706L23.5733 322.129L23.5462 347.586L30.846 351.376L31.0973 327.272L36.633 324.695L61.2885 313.161L68.9152 309.269L88 318.221V353.085L50.3218 371V361.818L77.1894 349.25V322.504ZM68.9841 344.427L50.6724 353.091V336.624L68.9841 328.118V344.427Z" fill="#3096A7" fill-opacity="0.04"/>
<path fill-rule="evenodd" clip-rule="evenodd" d="M161.189 322.504L153.027 318.466L125.531 331.54V366.469L120.321 363.96L120.314 363.969L117.143 362.429L114.743 361.273L114.743 361.264L97 352.648V342.111V317.973L106.538 313.501V313.439L115.484 309.19L134.829 300L144.217 304.706L107.573 322.129L107.546 347.586L114.846 351.376L115.097 327.272L120.633 324.695L145.289 313.161L152.915 309.269L172 318.221V353.085L134.322 371V361.818L161.189 349.25V322.504ZM152.984 344.427L134.672 353.091V336.624L152.984 328.118V344.427Z" fill="#3096A7" fill-opacity="0.03"/>
<path fill-rule="evenodd" clip-rule="evenodd" d="M121.189 262.504L113.027 258.466L85.5306 271.54V306.469L80.321 303.96L80.3142 303.969L77.143 302.429L74.7428 301.273L74.7429 301.264L57 292.648V282.111V257.973L66.5385 253.501V253.439L75.4837 249.19L94.8289 240L104.217 244.706L67.5733 262.129L67.5462 287.586L74.846 291.376L75.0973 267.272L80.633 264.695L105.289 253.161L112.915 249.269L132 258.221V293.085L94.3218 311V301.818L121.189 289.25V262.504ZM112.984 284.427L94.6724 293.091V276.624L112.984 268.118V284.427Z" fill="#3096A7" fill-opacity="0.03"/>
<path fill-rule="evenodd" clip-rule="evenodd" d="M74.1894 202.504L66.0266 198.466L38.5306 211.54V246.469L33.321 243.96L33.3142 243.969L30.143 242.429L27.7428 241.273L27.7429 241.264L10 232.648V222.111V197.973L19.5385 193.501V193.439L28.4837 189.19L47.8289 180L57.2167 184.706L20.5733 202.129L20.5462 227.586L27.846 231.376L28.0973 207.272L33.633 204.695L58.2885 193.161L65.9152 189.269L85 198.221V233.085L47.3218 251V241.818L74.1894 229.25V202.504ZM65.9841 224.427L47.6724 233.091V216.624L65.9841 208.118V224.427Z" fill="#3096A7" fill-opacity="0.03"/>
<path fill-rule="evenodd" clip-rule="evenodd" d="M245.189 322.504L237.027 318.466L209.531 331.54V366.469L204.321 363.96L204.314 363.969L201.143 362.429L198.743 361.273L198.743 361.264L181 352.648V342.111V317.973L190.538 313.501V313.439L199.484 309.19L218.829 300L228.217 304.706L191.573 322.129L191.546 347.586L198.846 351.376L199.097 327.272L204.633 324.695L229.289 313.161L236.915 309.269L256 318.221V353.085L218.322 371V361.818L245.189 349.25V322.504ZM236.984 344.427L218.672 353.091V336.624L236.984 328.118V344.427Z" fill="#3096A7" fill-opacity="0.02"/>
<path fill-rule="evenodd" clip-rule="evenodd" d="M205.189 262.504L197.027 258.466L169.531 271.54V306.469L164.321 303.96L164.314 303.969L161.143 302.429L158.743 301.273L158.743 301.264L141 292.648V282.111V257.973L150.538 253.501V253.439L159.484 249.19L178.829 240L188.217 244.706L151.573 262.129L151.546 287.586L158.846 291.376L159.097 267.272L164.633 264.695L189.289 253.161L196.915 249.269L216 258.221V293.085L178.322 311V301.818L205.189 289.25V262.504ZM196.984 284.427L178.672 293.091V276.624L196.984 268.118V284.427Z" fill="#3096A7" fill-opacity="0.02"/>
<path fill-rule="evenodd" clip-rule="evenodd" d="M158.189 202.504L150.027 198.466L122.531 211.54V246.469L117.321 243.96L117.314 243.969L114.143 242.429L111.743 241.273L111.743 241.264L94 232.648V222.111V197.973L103.538 193.501V193.439L112.484 189.19L131.829 180L141.217 184.706L104.573 202.129L104.546 227.586L111.846 231.376L112.097 207.272L117.633 204.695L142.289 193.161L149.915 189.269L169 198.221V233.085L131.322 251V241.818L158.189 229.25V202.504ZM149.984 224.427L131.672 233.091V216.624L149.984 208.118V224.427Z" fill="#3096A7" fill-opacity="0.02"/>
<path fill-rule="evenodd" clip-rule="evenodd" d="M111.189 142.504L103.027 138.466L75.5306 151.54V186.469L70.321 183.96L70.3142 183.969L67.143 182.429L64.7428 181.273L64.7429 181.264L47 172.648V162.111V137.973L56.5385 133.501V133.439L65.4837 129.19L84.8289 120L94.2167 124.706L57.5733 142.129L57.5462 167.586L64.846 171.376L65.0973 147.272L70.633 144.695L95.2885 133.161L102.915 129.269L122 138.221V173.085L84.3218 191V181.818L111.189 169.25V142.504ZM102.984 164.427L84.6724 173.091V156.624L102.984 148.118V164.427Z" fill="#3096A7" fill-opacity="0.02"/>
<path fill-rule="evenodd" clip-rule="evenodd" d="M64.1894 82.5036L56.0266 78.4659L28.5306 91.5396V126.469L23.321 123.96L23.3142 123.969L20.143 122.429L17.7428 121.273L17.7429 121.264L0 112.648V102.111V77.9729L9.53846 73.5011V73.4391L18.4837 69.1897L37.8289 60L47.2167 64.7056L10.5733 82.1287L10.5462 107.586L17.846 111.376L18.0973 87.2723L23.633 84.6949L48.2885 73.161L55.9152 69.2692L75 78.2214V113.085L37.3218 131V121.818L64.1894 109.25V82.5036ZM55.9841 104.427L37.6724 113.091V96.6242L55.9841 88.1183V104.427Z" fill="#3096A7" fill-opacity="0.02"/>
<path fill-rule="evenodd" clip-rule="evenodd" d="M329.189 322.504L321.027 318.466L293.531 331.54V366.469L288.321 363.96L288.314 363.969L285.143 362.429L282.743 361.273L282.743 361.264L265 352.648V342.111V317.973L274.538 313.501V313.439L283.484 309.19L302.829 300L312.217 304.706L275.573 322.129L275.546 347.586L282.846 351.376L283.097 327.272L288.633 324.695L313.289 313.161L320.915 309.269L340 318.221V353.085L302.322 371V361.818L329.189 349.25V322.504ZM320.984 344.427L302.672 353.091V336.624L320.984 328.118V344.427Z" fill="#3096A7" fill-opacity="0.01"/>
<path fill-rule="evenodd" clip-rule="evenodd" d="M289.189 262.504L281.027 258.466L253.531 271.54V306.469L248.321 303.96L248.314 303.969L245.143 302.429L242.743 301.273L242.743 301.264L225 292.648V282.111V257.973L234.538 253.501V253.439L243.484 249.19L262.829 240L272.217 244.706L235.573 262.129L235.546 287.586L242.846 291.376L243.097 267.272L248.633 264.695L273.289 253.161L280.915 249.269L300 258.221V293.085L262.322 311V301.818L289.189 289.25V262.504ZM280.984 284.427L262.672 293.091V276.624L280.984 268.118V284.427Z" fill="#3096A7" fill-opacity="0.01"/>
<path fill-rule="evenodd" clip-rule="evenodd" d="M242.189 202.504L234.027 198.466L206.531 211.54V246.469L201.321 243.96L201.314 243.969L198.143 242.429L195.743 241.273L195.743 241.264L178 232.648V222.111V197.973L187.538 193.501V193.439L196.484 189.19L215.829 180L225.217 184.706L188.573 202.129L188.546 227.586L195.846 231.376L196.097 207.272L201.633 204.695L226.289 193.161L233.915 189.269L253 198.221V233.085L215.322 251V241.818L242.189 229.25V202.504ZM233.984 224.427L215.672 233.091V216.624L233.984 208.118V224.427Z" fill="#3096A7" fill-opacity="0.01"/>
<path fill-rule="evenodd" clip-rule="evenodd" d="M195.189 142.504L187.027 138.466L159.531 151.54V186.469L154.321 183.96L154.314 183.969L151.143 182.429L148.743 181.273L148.743 181.264L131 172.648V162.111V137.973L140.538 133.501V133.439L149.484 129.19L168.829 120L178.217 124.706L141.573 142.129L141.546 167.586L148.846 171.376L149.097 147.272L154.633 144.695L179.289 133.161L186.915 129.269L206 138.221V173.085L168.322 191V181.818L195.189 169.25V142.504ZM186.984 164.427L168.672 173.091V156.624L186.984 148.118V164.427Z" fill="#3096A7" fill-opacity="0.01"/>
<path fill-rule="evenodd" clip-rule="evenodd" d="M148.189 82.5036L140.027 78.4659L112.531 91.5396V126.469L107.321 123.96L107.314 123.969L104.143 122.429L101.743 121.273L101.743 121.264L84 112.648V102.111V77.9729L93.5385 73.5011V73.4391L102.484 69.1897L121.829 60L131.217 64.7056L94.5733 82.1287L94.5462 107.586L101.846 111.376L102.097 87.2723L107.633 84.6949L132.289 73.161L139.915 69.2692L159 78.2214V113.085L121.322 131V121.818L148.189 109.25V82.5036ZM139.984 104.427L121.672 113.091V96.6242L139.984 88.1183V104.427Z" fill="#3096A7" fill-opacity="0.01"/>
<path fill-rule="evenodd" clip-rule="evenodd" d="M101.189 22.5036L93.0266 18.4659L65.5306 31.5396V66.4693L60.321 63.9601L60.3142 63.9692L57.143 62.4294L54.7428 61.2733L54.7429 61.2639L37 52.6483V42.1106V17.9729L46.5385 13.5011V13.4391L55.4837 9.18972L74.8289 0L84.2167 4.70561L47.5733 22.1287L47.5462 47.5861L54.846 51.3762L55.0973 27.2723L60.633 24.6949L85.2885 13.161L92.9152 9.2692L112 18.2214V53.0849L74.3218 71V61.8183L101.189 49.2496V22.5036ZM92.9841 44.4272L74.6724 53.0912V36.6242L92.9841 28.1183V44.4272Z" fill="#3096A7" fill-opacity="0.01"/>
<path fill-rule="evenodd" clip-rule="evenodd" d="M79.1894 440.504L71.0266 436.466L43.5306 449.54V484.469L38.321 481.96L38.3142 481.969L35.143 480.429L32.7428 479.273L32.7429 479.264L15 470.648V460.111V435.973L24.5385 431.501V431.439L33.4837 427.19L52.8289 418L62.2167 422.706L25.5733 440.129L25.5462 465.586L32.846 469.376L33.0973 445.272L38.633 442.695L63.2885 431.161L70.9152 427.269L90 436.221V471.085L52.3218 489V479.818L79.1894 467.25V440.504ZM70.9841 462.427L52.6724 471.091V454.624L70.9841 446.118V462.427Z" fill="#3096A7" fill-opacity="0.05"/>
</svg>
