<svg width="487" height="668" viewBox="0 0 487 668" fill="none" xmlns="http://www.w3.org/2000/svg">
<path fill-rule="evenodd" clip-rule="evenodd" d="M430.811 169.496L438.973 173.534L466.469 160.46V125.531L471.679 128.04L471.686 128.031L474.857 129.571L477.257 130.727L477.257 130.736L495 139.352V149.889V174.027L485.462 178.499V178.561L476.516 182.81L457.171 192L447.783 187.294L484.427 169.871L484.454 144.414L477.154 140.624L476.903 164.728L471.367 167.305L446.711 178.839L439.085 182.731L420 173.779V138.915L457.678 121V130.182L430.811 142.75V169.496ZM439.016 147.573L457.328 138.909V155.376L439.016 163.882V147.573Z" fill="#3096A7" fill-opacity="0.05"/>
<path fill-rule="evenodd" clip-rule="evenodd" d="M389.811 227.496L397.973 231.534L425.469 218.46V183.531L430.679 186.04L430.686 186.031L433.857 187.571L436.257 188.727L436.257 188.736L454 197.352V207.889V232.027L444.462 236.499V236.561L435.516 240.81L416.171 250L406.783 245.294L443.427 227.871L443.454 202.414L436.154 198.624L435.903 222.728L430.367 225.305L405.711 236.839L398.085 240.731L379 231.779V196.915L416.678 179V188.182L389.811 200.75V227.496ZM398.016 205.573L416.328 196.909V213.376L398.016 221.882V205.573Z" fill="#3096A7" fill-opacity="0.04"/>
<path fill-rule="evenodd" clip-rule="evenodd" d="M305.811 227.496L313.973 231.534L341.469 218.46V183.531L346.679 186.04L346.686 186.031L349.857 187.571L352.257 188.727L352.257 188.736L370 197.352V207.889V232.027L360.462 236.499V236.561L351.516 240.81L332.171 250L322.783 245.294L359.427 227.871L359.454 202.414L352.154 198.624L351.903 222.728L346.367 225.305L321.711 236.839L314.085 240.731L295 231.779V196.915L332.678 179V188.182L305.811 200.75V227.496ZM314.016 205.573L332.328 196.909V213.376L314.016 221.882V205.573Z" fill="#3096A7" fill-opacity="0.03"/>
<path fill-rule="evenodd" clip-rule="evenodd" d="M221.811 227.496L229.973 231.534L257.469 218.46V183.531L262.679 186.04L262.686 186.031L265.857 187.571L268.257 188.727L268.257 188.736L286 197.352V207.889V232.027L276.462 236.499V236.561L267.516 240.81L248.171 250L238.783 245.294L275.427 227.871L275.454 202.414L268.154 198.624L267.903 222.728L262.367 225.305L237.711 236.839L230.085 240.731L211 231.779V196.915L248.678 179V188.182L221.811 200.75V227.496ZM230.016 205.573L248.328 196.909V213.376L230.016 221.882V205.573Z" fill="#3096A7" fill-opacity="0.02"/>
<path fill-rule="evenodd" clip-rule="evenodd" d="M137.811 227.496L145.973 231.534L173.469 218.46V183.531L178.679 186.04L178.686 186.031L181.857 187.571L184.257 188.727L184.257 188.736L202 197.352V207.889V232.027L192.462 236.499V236.561L183.516 240.81L164.171 250L154.783 245.294L191.427 227.871L191.454 202.414L184.154 198.624L183.903 222.728L178.367 225.305L153.711 236.839L146.085 240.731L127 231.779V196.915L164.678 179V188.182L137.811 200.75V227.496ZM146.016 205.573L164.328 196.909V213.376L146.016 221.882V205.573Z" fill="#3096A7" fill-opacity="0.01"/>
<path fill-rule="evenodd" clip-rule="evenodd" d="M348.811 166.496L356.973 170.534L384.469 157.46V122.531L389.679 125.04L389.686 125.031L392.857 126.571L395.257 127.727L395.257 127.736L413 136.352V146.889V171.027L403.462 175.499V175.561L394.516 179.81L375.171 189L365.783 184.294L402.427 166.871L402.454 141.414L395.154 137.624L394.903 161.728L389.367 164.305L364.711 175.839L357.085 179.731L338 170.779V135.915L375.678 118V127.182L348.811 139.75V166.496ZM357.016 144.573L375.328 135.909V152.376L357.016 160.882V144.573Z" fill="#3096A7" fill-opacity="0.04"/>
<path fill-rule="evenodd" clip-rule="evenodd" d="M264.811 166.496L272.973 170.534L300.469 157.46V122.531L305.679 125.04L305.686 125.031L308.857 126.571L311.257 127.727L311.257 127.736L329 136.352V146.889V171.027L319.462 175.499V175.561L310.516 179.81L291.171 189L281.783 184.294L318.427 166.871L318.454 141.414L311.154 137.624L310.903 161.728L305.367 164.305L280.711 175.839L273.085 179.731L254 170.779V135.915L291.678 118V127.182L264.811 139.75V166.496ZM273.016 144.573L291.328 135.909V152.376L273.016 160.882V144.573Z" fill="#3096A7" fill-opacity="0.03"/>
<path fill-rule="evenodd" clip-rule="evenodd" d="M180.811 166.496L188.973 170.534L216.469 157.46V122.531L221.679 125.04L221.686 125.031L224.857 126.571L227.257 127.727L227.257 127.736L245 136.352V146.889V171.027L235.462 175.499V175.561L226.516 179.81L207.171 189L197.783 184.294L234.427 166.871L234.454 141.414L227.154 137.624L226.903 161.728L221.367 164.305L196.711 175.839L189.085 179.731L170 170.779V135.915L207.678 118V127.182L180.811 139.75V166.496ZM189.016 144.573L207.328 135.909V152.376L189.016 160.882V144.573Z" fill="#3096A7" fill-opacity="0.02"/>
<path fill-rule="evenodd" clip-rule="evenodd" d="M96.8106 166.496L104.973 170.534L132.469 157.46V122.531L137.679 125.04L137.686 125.031L140.857 126.571L143.257 127.727L143.257 127.736L161 136.352V146.889V171.027L151.462 175.499V175.561L142.516 179.81L123.171 189L113.783 184.294L150.427 166.871L150.454 141.414L143.154 137.624L142.903 161.728L137.367 164.305L112.711 175.839L105.085 179.731L86 170.779V135.915L123.678 118V127.182L96.8106 139.75V166.496ZM105.016 144.573L123.328 135.909V152.376L105.016 160.882V144.573Z" fill="#3096A7" fill-opacity="0.01"/>
<path fill-rule="evenodd" clip-rule="evenodd" d="M307.811 105.496L315.973 109.534L343.469 96.4604V61.5307L348.679 64.0399L348.686 64.0308L351.857 65.5706L354.257 66.7267L354.257 66.7361L372 75.3517V85.8894V110.027L362.462 114.499V114.561L353.516 118.81L334.171 128L324.783 123.294L361.427 105.871L361.454 80.4139L354.154 76.6238L353.903 100.728L348.367 103.305L323.711 114.839L316.085 118.731L297 109.779V74.9151L334.678 57V66.1817L307.811 78.7504V105.496ZM316.016 83.5728L334.328 74.9088V91.3758L316.016 99.8817V83.5728Z" fill="#3096A7" fill-opacity="0.04"/>
<path fill-rule="evenodd" clip-rule="evenodd" d="M223.811 105.496L231.973 109.534L259.469 96.4604V61.5307L264.679 64.0399L264.686 64.0308L267.857 65.5706L270.257 66.7267L270.257 66.7361L288 75.3517V85.8894V110.027L278.462 114.499V114.561L269.516 118.81L250.171 128L240.783 123.294L277.427 105.871L277.454 80.4139L270.154 76.6238L269.903 100.728L264.367 103.305L239.711 114.839L232.085 118.731L213 109.779V74.9151L250.678 57V66.1817L223.811 78.7504V105.496ZM232.016 83.5728L250.328 74.9088V91.3758L232.016 99.8817V83.5728Z" fill="#3096A7" fill-opacity="0.03"/>
<path fill-rule="evenodd" clip-rule="evenodd" d="M139.811 105.496L147.973 109.534L175.469 96.4604V61.5307L180.679 64.0399L180.686 64.0308L183.857 65.5706L186.257 66.7267L186.257 66.7361L204 75.3517V85.8894V110.027L194.462 114.499V114.561L185.516 118.81L166.171 128L156.783 123.294L193.427 105.871L193.454 80.4139L186.154 76.6238L185.903 100.728L180.367 103.305L155.711 114.839L148.085 118.731L129 109.779V74.9151L166.678 57V66.1817L139.811 78.7504V105.496ZM148.016 83.5728L166.328 74.9088V91.3758L148.016 99.8817V83.5728Z" fill="#3096A7" fill-opacity="0.02"/>
<path fill-rule="evenodd" clip-rule="evenodd" d="M55.8106 105.496L63.9734 109.534L91.4694 96.4604V61.5307L96.679 64.0399L96.6858 64.0308L99.857 65.5706L102.257 66.7267L102.257 66.7361L120 75.3517V85.8894V110.027L110.462 114.499V114.561L101.516 118.81L82.1711 128L72.7833 123.294L109.427 105.871L109.454 80.4139L102.154 76.6238L101.903 100.728L96.367 103.305L71.7115 114.839L64.0848 118.731L45 109.779V74.9151L82.6782 57V66.1817L55.8106 78.7504V105.496ZM64.0159 83.5728L82.3276 74.9088V91.3758L64.0159 99.8817V83.5728Z" fill="#3096A7" fill-opacity="0.01"/>
<path fill-rule="evenodd" clip-rule="evenodd" d="M391.811 108.496L399.973 112.534L427.469 99.4604V64.5307L432.679 67.0399L432.686 67.0308L435.857 68.5706L438.257 69.7267L438.257 69.7361L456 78.3517V88.8894V113.027L446.462 117.499V117.561L437.516 121.81L418.171 131L408.783 126.294L445.427 108.871L445.454 83.4139L438.154 79.6238L437.903 103.728L432.367 106.305L407.711 117.839L400.085 121.731L381 112.779V77.9151L418.678 60V69.1817L391.811 81.7504V108.496ZM400.016 86.5728L418.328 77.9088V94.3758L400.016 102.882V86.5728Z" fill="#3096A7" fill-opacity="0.05"/>
<path fill-rule="evenodd" clip-rule="evenodd" d="M475.811 111.496L483.973 115.534L511.469 102.46V67.5307L516.679 70.0399L516.686 70.0308L519.857 71.5706L522.257 72.7267L522.257 72.7361L540 81.3517V91.8894V116.027L530.462 120.499V120.561L521.516 124.81L502.171 134L492.783 129.294L529.427 111.871L529.454 86.4139L522.154 82.6238L521.903 106.728L516.367 109.305L491.711 120.839L484.085 124.731L465 115.779V80.9151L502.678 63V72.1817L475.811 84.7504V111.496ZM484.016 89.5728L502.328 80.9088V97.3758L484.016 105.882V89.5728Z" fill="#3096A7" fill-opacity="0.05"/>
<path fill-rule="evenodd" clip-rule="evenodd" d="M352.811 48.4964L360.973 52.5341L388.469 39.4604V4.53068L393.679 7.03994L393.686 7.03078L396.857 8.57064L399.257 9.72675L399.257 9.73612L417 18.3517V28.8894V53.0271L407.462 57.4989V57.5609L398.516 61.8103L379.171 71L369.783 66.2944L406.427 48.8713L406.454 23.4139L399.154 19.6238L398.903 43.7277L393.367 46.3051L368.711 57.839L361.085 61.7308L342 52.7786V17.9151L379.678 0V9.18165L352.811 21.7504V48.4964ZM361.016 26.5728L379.328 17.9088V34.3758L361.016 42.8817V26.5728Z" fill="#3096A7" fill-opacity="0.05"/>
<path fill-rule="evenodd" clip-rule="evenodd" d="M262.811 48.4964L270.973 52.5341L298.469 39.4604V4.53068L303.679 7.03994L303.686 7.03078L306.857 8.57064L309.257 9.72675L309.257 9.73612L327 18.3517V28.8894V53.0271L317.462 57.4989V57.5609L308.516 61.8103L289.171 71L279.783 66.2944L316.427 48.8713L316.454 23.4139L309.154 19.6238L308.903 43.7277L303.367 46.3051L278.711 57.839L271.085 61.7308L252 52.7786V17.9151L289.678 0V9.18165L262.811 21.7504V48.4964ZM271.016 26.5728L289.328 17.9088V34.3758L271.016 42.8817V26.5728Z" fill="#3096A7" fill-opacity="0.04"/>
<path fill-rule="evenodd" clip-rule="evenodd" d="M178.811 48.4964L186.973 52.5341L214.469 39.4604V4.53068L219.679 7.03994L219.686 7.03078L222.857 8.57064L225.257 9.72675L225.257 9.73612L243 18.3517V28.8894V53.0271L233.462 57.4989V57.5609L224.516 61.8103L205.171 71L195.783 66.2944L232.427 48.8713L232.454 23.4139L225.154 19.6238L224.903 43.7277L219.367 46.3051L194.711 57.839L187.085 61.7308L168 52.7786V17.9151L205.678 0V9.18165L178.811 21.7504V48.4964ZM187.016 26.5728L205.328 17.9088V34.3758L187.016 42.8817V26.5728Z" fill="#3096A7" fill-opacity="0.03"/>
<path fill-rule="evenodd" clip-rule="evenodd" d="M94.8106 48.4964L102.973 52.5341L130.469 39.4604V4.53068L135.679 7.03994L135.686 7.03078L138.857 8.57064L141.257 9.72675L141.257 9.73612L159 18.3517V28.8894V53.0271L149.462 57.4989V57.5609L140.516 61.8103L121.171 71L111.783 66.2944L148.427 48.8713L148.454 23.4139L141.154 19.6238L140.903 43.7277L135.367 46.3051L110.711 57.839L103.085 61.7308L84 52.7786V17.9151L121.678 0V9.18165L94.8106 21.7504V48.4964ZM103.016 26.5728L121.328 17.9088V34.3758L103.016 42.8817V26.5728Z" fill="#3096A7" fill-opacity="0.02"/>
<path fill-rule="evenodd" clip-rule="evenodd" d="M10.8106 48.4964L18.9734 52.5341L46.4694 39.4604V4.53068L51.679 7.03994L51.6858 7.03078L54.857 8.57064L57.2572 9.72675L57.2571 9.73612L75 18.3517V28.8894V53.0271L65.4615 57.4989V57.5609L56.5163 61.8103L37.1711 71L27.7833 66.2944L64.4267 48.8713L64.4538 23.4139L57.154 19.6238L56.9027 43.7277L51.367 46.3051L26.7115 57.839L19.0848 61.7308L0 52.7786V17.9151L37.6782 0V9.18165L10.8106 21.7504V48.4964ZM19.0159 26.5728L37.3276 17.9088V34.3758L19.0159 42.8817V26.5728Z" fill="#3096A7" fill-opacity="0.01"/>
<path fill-rule="evenodd" clip-rule="evenodd" d="M435.811 51.4964L443.973 55.5341L471.469 42.4604V7.53068L476.679 10.0399L476.686 10.0308L479.857 11.5706L482.257 12.7267L482.257 12.7361L500 21.3517V31.8894V56.0271L490.462 60.4989V60.5609L481.516 64.8103L462.171 74L452.783 69.2944L489.427 51.8713L489.454 26.4139L482.154 22.6238L481.903 46.7277L476.367 49.3051L451.711 60.839L444.085 64.7308L425 55.7786V20.9151L462.678 3V12.1817L435.811 24.7504V51.4964ZM444.016 29.5728L462.328 20.9088V37.3758L444.016 45.8817V29.5728Z" fill="#3096A7" fill-opacity="0.05"/>
<path fill-rule="evenodd" clip-rule="evenodd" d="M430.811 286.496L438.973 290.534L466.469 277.46V242.531L471.679 245.04L471.686 245.031L474.857 246.571L477.257 247.727L477.257 247.736L495 256.352V266.889V291.027L485.462 295.499V295.561L476.516 299.81L457.171 309L447.783 304.294L484.427 286.871L484.454 261.414L477.154 257.624L476.903 281.728L471.367 284.305L446.711 295.839L439.085 299.731L420 290.779V255.915L457.678 238V247.182L430.811 259.75V286.496ZM439.016 264.573L457.328 255.909V272.376L439.016 280.882V264.573Z" fill="#3096A7" fill-opacity="0.04"/>
<path fill-rule="evenodd" clip-rule="evenodd" d="M346.811 286.496L354.973 290.534L382.469 277.46V242.531L387.679 245.04L387.686 245.031L390.857 246.571L393.257 247.727L393.257 247.736L411 256.352V266.889V291.027L401.462 295.499V295.561L392.516 299.81L373.171 309L363.783 304.294L400.427 286.871L400.454 261.414L393.154 257.624L392.903 281.728L387.367 284.305L362.711 295.839L355.085 299.731L336 290.779V255.915L373.678 238V247.182L346.811 259.75V286.496ZM355.016 264.573L373.328 255.909V272.376L355.016 280.882V264.573Z" fill="#3096A7" fill-opacity="0.03"/>
<path fill-rule="evenodd" clip-rule="evenodd" d="M262.811 286.496L270.973 290.534L298.469 277.46V242.531L303.679 245.04L303.686 245.031L306.857 246.571L309.257 247.727L309.257 247.736L327 256.352V266.889V291.027L317.462 295.499V295.561L308.516 299.81L289.171 309L279.783 304.294L316.427 286.871L316.454 261.414L309.154 257.624L308.903 281.728L303.367 284.305L278.711 295.839L271.085 299.731L252 290.779V255.915L289.678 238V247.182L262.811 259.75V286.496ZM271.016 264.573L289.328 255.909V272.376L271.016 280.882V264.573Z" fill="#3096A7" fill-opacity="0.02"/>
<path fill-rule="evenodd" clip-rule="evenodd" d="M178.811 286.496L186.973 290.534L214.469 277.46V242.531L219.679 245.04L219.686 245.031L222.857 246.571L225.257 247.727L225.257 247.736L243 256.352V266.889V291.027L233.462 295.499V295.561L224.516 299.81L205.171 309L195.783 304.294L232.427 286.871L232.454 261.414L225.154 257.624L224.903 281.728L219.367 284.305L194.711 295.839L187.085 299.731L168 290.779V255.915L205.678 238V247.182L178.811 259.75V286.496ZM187.016 264.573L205.328 255.909V272.376L187.016 280.882V264.573Z" fill="#3096A7" fill-opacity="0.01"/>
<path fill-rule="evenodd" clip-rule="evenodd" d="M472.811 345.496L480.973 349.534L508.469 336.46V301.531L513.679 304.04L513.686 304.031L516.857 305.571L519.257 306.727L519.257 306.736L537 315.352V325.889V350.027L527.462 354.499V354.561L518.516 358.81L499.171 368L489.783 363.294L526.427 345.871L526.454 320.414L519.154 316.624L518.903 340.728L513.367 343.305L488.711 354.839L481.085 358.731L462 349.779V314.915L499.678 297V306.182L472.811 318.75V345.496ZM481.016 323.573L499.328 314.909V331.376L481.016 339.882V323.573Z" fill="#3096A7" fill-opacity="0.04"/>
<path fill-rule="evenodd" clip-rule="evenodd" d="M388.811 345.496L396.973 349.534L424.469 336.46V301.531L429.679 304.04L429.686 304.031L432.857 305.571L435.257 306.727L435.257 306.736L453 315.352V325.889V350.027L443.462 354.499V354.561L434.516 358.81L415.171 368L405.783 363.294L442.427 345.871L442.454 320.414L435.154 316.624L434.903 340.728L429.367 343.305L404.711 354.839L397.085 358.731L378 349.779V314.915L415.678 297V306.182L388.811 318.75V345.496ZM397.016 323.573L415.328 314.909V331.376L397.016 339.882V323.573Z" fill="#3096A7" fill-opacity="0.03"/>
<path fill-rule="evenodd" clip-rule="evenodd" d="M428.811 405.496L436.973 409.534L464.469 396.46V361.531L469.679 364.04L469.686 364.031L472.857 365.571L475.257 366.727L475.257 366.736L493 375.352V385.889V410.027L483.462 414.499V414.561L474.516 418.81L455.171 428L445.783 423.294L482.427 405.871L482.454 380.414L475.154 376.624L474.903 400.728L469.367 403.305L444.711 414.839L437.085 418.731L418 409.779V374.915L455.678 357V366.182L428.811 378.75V405.496ZM437.016 383.573L455.328 374.909V391.376L437.016 399.882V383.573Z" fill="#3096A7" fill-opacity="0.03"/>
<path fill-rule="evenodd" clip-rule="evenodd" d="M475.811 465.496L483.973 469.534L511.469 456.46V421.531L516.679 424.04L516.686 424.031L519.857 425.571L522.257 426.727L522.257 426.736L540 435.352V445.889V470.027L530.462 474.499V474.561L521.516 478.81L502.171 488L492.783 483.294L529.427 465.871L529.454 440.414L522.154 436.624L521.903 460.728L516.367 463.305L491.711 474.839L484.085 478.731L465 469.779V434.915L502.678 417V426.182L475.811 438.75V465.496ZM484.016 443.573L502.328 434.909V451.376L484.016 459.882V443.573Z" fill="#3096A7" fill-opacity="0.03"/>
<path fill-rule="evenodd" clip-rule="evenodd" d="M304.811 345.496L312.973 349.534L340.469 336.46V301.531L345.679 304.04L345.686 304.031L348.857 305.571L351.257 306.727L351.257 306.736L369 315.352V325.889V350.027L359.462 354.499V354.561L350.516 358.81L331.171 368L321.783 363.294L358.427 345.871L358.454 320.414L351.154 316.624L350.903 340.728L345.367 343.305L320.711 354.839L313.085 358.731L294 349.779V314.915L331.678 297V306.182L304.811 318.75V345.496ZM313.016 323.573L331.328 314.909V331.376L313.016 339.882V323.573Z" fill="#3096A7" fill-opacity="0.02"/>
<path fill-rule="evenodd" clip-rule="evenodd" d="M344.811 405.496L352.973 409.534L380.469 396.46V361.531L385.679 364.04L385.686 364.031L388.857 365.571L391.257 366.727L391.257 366.736L409 375.352V385.889V410.027L399.462 414.499V414.561L390.516 418.81L371.171 428L361.783 423.294L398.427 405.871L398.454 380.414L391.154 376.624L390.903 400.728L385.367 403.305L360.711 414.839L353.085 418.731L334 409.779V374.915L371.678 357V366.182L344.811 378.75V405.496ZM353.016 383.573L371.328 374.909V391.376L353.016 399.882V383.573Z" fill="#3096A7" fill-opacity="0.02"/>
<path fill-rule="evenodd" clip-rule="evenodd" d="M391.811 465.496L399.973 469.534L427.469 456.46V421.531L432.679 424.04L432.686 424.031L435.857 425.571L438.257 426.727L438.257 426.736L456 435.352V445.889V470.027L446.462 474.499V474.561L437.516 478.81L418.171 488L408.783 483.294L445.427 465.871L445.454 440.414L438.154 436.624L437.903 460.728L432.367 463.305L407.711 474.839L400.085 478.731L381 469.779V434.915L418.678 417V426.182L391.811 438.75V465.496ZM400.016 443.573L418.328 434.909V451.376L400.016 459.882V443.573Z" fill="#3096A7" fill-opacity="0.02"/>
<path fill-rule="evenodd" clip-rule="evenodd" d="M438.811 525.496L446.973 529.534L474.469 516.46V481.531L479.679 484.04L479.686 484.031L482.857 485.571L485.257 486.727L485.257 486.736L503 495.352V505.889V530.027L493.462 534.499V534.561L484.516 538.81L465.171 548L455.783 543.294L492.427 525.871L492.454 500.414L485.154 496.624L484.903 520.728L479.367 523.305L454.711 534.839L447.085 538.731L428 529.779V494.915L465.678 477V486.182L438.811 498.75V525.496ZM447.016 503.573L465.328 494.909V511.376L447.016 519.882V503.573Z" fill="#3096A7" fill-opacity="0.02"/>
<path fill-rule="evenodd" clip-rule="evenodd" d="M485.811 585.496L493.973 589.534L521.469 576.46V541.531L526.679 544.04L526.686 544.031L529.857 545.571L532.257 546.727L532.257 546.736L550 555.352V565.889V590.027L540.462 594.499V594.561L531.516 598.81L512.171 608L502.783 603.294L539.427 585.871L539.454 560.414L532.154 556.624L531.903 580.728L526.367 583.305L501.711 594.839L494.085 598.731L475 589.779V554.915L512.678 537V546.182L485.811 558.75V585.496ZM494.016 563.573L512.328 554.909V571.376L494.016 579.882V563.573Z" fill="#3096A7" fill-opacity="0.02"/>
<path fill-rule="evenodd" clip-rule="evenodd" d="M220.811 345.496L228.973 349.534L256.469 336.46V301.531L261.679 304.04L261.686 304.031L264.857 305.571L267.257 306.727L267.257 306.736L285 315.352V325.889V350.027L275.462 354.499V354.561L266.516 358.81L247.171 368L237.783 363.294L274.427 345.871L274.454 320.414L267.154 316.624L266.903 340.728L261.367 343.305L236.711 354.839L229.085 358.731L210 349.779V314.915L247.678 297V306.182L220.811 318.75V345.496ZM229.016 323.573L247.328 314.909V331.376L229.016 339.882V323.573Z" fill="#3096A7" fill-opacity="0.01"/>
<path fill-rule="evenodd" clip-rule="evenodd" d="M260.811 405.496L268.973 409.534L296.469 396.46V361.531L301.679 364.04L301.686 364.031L304.857 365.571L307.257 366.727L307.257 366.736L325 375.352V385.889V410.027L315.462 414.499V414.561L306.516 418.81L287.171 428L277.783 423.294L314.427 405.871L314.454 380.414L307.154 376.624L306.903 400.728L301.367 403.305L276.711 414.839L269.085 418.731L250 409.779V374.915L287.678 357V366.182L260.811 378.75V405.496ZM269.016 383.573L287.328 374.909V391.376L269.016 399.882V383.573Z" fill="#3096A7" fill-opacity="0.01"/>
<path fill-rule="evenodd" clip-rule="evenodd" d="M307.811 465.496L315.973 469.534L343.469 456.46V421.531L348.679 424.04L348.686 424.031L351.857 425.571L354.257 426.727L354.257 426.736L372 435.352V445.889V470.027L362.462 474.499V474.561L353.516 478.81L334.171 488L324.783 483.294L361.427 465.871L361.454 440.414L354.154 436.624L353.903 460.728L348.367 463.305L323.711 474.839L316.085 478.731L297 469.779V434.915L334.678 417V426.182L307.811 438.75V465.496ZM316.016 443.573L334.328 434.909V451.376L316.016 459.882V443.573Z" fill="#3096A7" fill-opacity="0.01"/>
<path fill-rule="evenodd" clip-rule="evenodd" d="M354.811 525.496L362.973 529.534L390.469 516.46V481.531L395.679 484.04L395.686 484.031L398.857 485.571L401.257 486.727L401.257 486.736L419 495.352V505.889V530.027L409.462 534.499V534.561L400.516 538.81L381.171 548L371.783 543.294L408.427 525.871L408.454 500.414L401.154 496.624L400.903 520.728L395.367 523.305L370.711 534.839L363.085 538.731L344 529.779V494.915L381.678 477V486.182L354.811 498.75V525.496ZM363.016 503.573L381.328 494.909V511.376L363.016 519.882V503.573Z" fill="#3096A7" fill-opacity="0.01"/>
<path fill-rule="evenodd" clip-rule="evenodd" d="M401.811 585.496L409.973 589.534L437.469 576.46V541.531L442.679 544.04L442.686 544.031L445.857 545.571L448.257 546.727L448.257 546.736L466 555.352V565.889V590.027L456.462 594.499V594.561L447.516 598.81L428.171 608L418.783 603.294L455.427 585.871L455.454 560.414L448.154 556.624L447.903 580.728L442.367 583.305L417.711 594.839L410.085 598.731L391 589.779V554.915L428.678 537V546.182L401.811 558.75V585.496ZM410.016 563.573L428.328 554.909V571.376L410.016 579.882V563.573Z" fill="#3096A7" fill-opacity="0.01"/>
<path fill-rule="evenodd" clip-rule="evenodd" d="M448.811 645.496L456.973 649.534L484.469 636.46V601.531L489.679 604.04L489.686 604.031L492.857 605.571L495.257 606.727L495.257 606.736L513 615.352V625.889V650.027L503.462 654.499V654.561L494.516 658.81L475.171 668L465.783 663.294L502.427 645.871L502.454 620.414L495.154 616.624L494.903 640.728L489.367 643.305L464.711 654.839L457.085 658.731L438 649.779V614.915L475.678 597V606.182L448.811 618.75V645.496ZM457.016 623.573L475.328 614.909V631.376L457.016 639.882V623.573Z" fill="#3096A7" fill-opacity="0.01"/>
<path fill-rule="evenodd" clip-rule="evenodd" d="M470.811 227.496L478.973 231.534L506.469 218.46V183.531L511.679 186.04L511.686 186.031L514.857 187.571L517.257 188.727L517.257 188.736L535 197.352V207.889V232.027L525.462 236.499V236.561L516.516 240.81L497.171 250L487.783 245.294L524.427 227.871L524.454 202.414L517.154 198.624L516.903 222.728L511.367 225.305L486.711 236.839L479.085 240.731L460 231.779V196.915L497.678 179V188.182L470.811 200.75V227.496ZM479.016 205.573L497.328 196.909V213.376L479.016 221.882V205.573Z" fill="#3096A7" fill-opacity="0.05"/>
</svg>
