<svg width="56" height="54" viewBox="0 0 56 54" fill="none" xmlns="http://www.w3.org/2000/svg">
<g clip-path="url(#clip0_35:482)">
<path fill-rule="evenodd" clip-rule="evenodd" d="M53.6667 0H2.33333C1.71449 0 1.121 0.237053 0.683417 0.65901C0.245833 1.08097 0 1.65326 0 2.25L0 51.75C0 52.3467 0.245833 52.919 0.683417 53.341C1.121 53.7629 1.71449 54 2.33333 54H29.75V33.75H22.75V25.3125H29.75V18.5625C29.75 11.5875 34.3303 8.15625 40.782 8.15625C43.8713 8.15625 46.529 8.379 47.3013 8.47575V15.7657L42.8283 15.768C39.319 15.768 38.5 17.3767 38.5 19.7347V25.3125H47.25L45.5 33.75H38.5L38.64 54H53.6667C54.2855 54 54.879 53.7629 55.3166 53.341C55.7542 52.919 56 52.3467 56 51.75V2.25C56 1.65326 55.7542 1.08097 55.3166 0.65901C54.879 0.237053 54.2855 0 53.6667 0" fill="#0066CC"/>
</g>
<rect width="56" height="54" stroke="black"/>
<defs>
<clipPath id="clip0_35:482">
</clipPath>
</defs>
</svg>
