<svg width="57" height="57" viewBox="0 0 57 57" fill="none" xmlns="http://www.w3.org/2000/svg">
<g clip-path="url(#clip0_35:478)">
<path d="M48.5657 48.567H40.1201V35.3405C40.1201 32.1866 40.0638 28.1265 35.7276 28.1265C31.3288 28.1265 30.6557 31.563 30.6557 35.111V48.5661H22.2103V21.3673H30.3179V25.0843H30.4315C31.2428 23.697 32.4153 22.5556 33.824 21.7819C35.2328 21.0082 36.825 20.6311 38.4311 20.6907C46.9911 20.6907 48.5693 26.3212 48.5693 33.6461L48.5657 48.567ZM12.6806 17.6496C9.9738 17.6501 7.77908 15.456 7.77863 12.7492C7.77819 10.0423 9.97202 7.84762 12.6789 7.84717C15.3857 7.8465 17.5804 10.0406 17.5809 12.7474C17.5811 14.0473 17.065 15.294 16.146 16.2133C15.227 17.1327 13.9805 17.6493 12.6806 17.6496ZM16.9035 48.5672H8.44905V21.3673H16.9033V48.567L16.9035 48.5672ZM52.7761 0.00366023H4.20522C1.90964 -0.0221679 0.0270781 1.81675 -0.000976562 4.11234V52.8859C0.0261875 55.1826 1.90852 57.0233 4.205 56.9992H52.7761C55.0775 57.0277 56.9672 55.187 56.999 52.8859V4.10855C56.9663 1.80851 55.0764 -0.0301835 52.7761 -0.00012493" fill="#0A66C2"/>
</g>
<defs>
<clipPath id="clip0_35:478">
<rect width="57" height="57" fill="white"/>
</clipPath>
</defs>
</svg>
