<svg width="60" height="49" viewBox="0 0 60 49" fill="none" xmlns="http://www.w3.org/2000/svg">
<path d="M60 5.80051C57.7922 6.78429 55.4198 7.44918 52.9298 7.7483C55.4716 6.21739 57.4233 3.79313 58.3423 0.904651C55.926 2.34556 53.2824 3.36077 50.5256 3.90642C48.2801 1.50241 45.0811 0 41.5404 0C34.7421 0 29.2303 5.5386 29.2303 12.3698C29.2303 13.3394 29.3393 14.2834 29.5491 15.189C19.3186 14.673 10.2483 9.74837 4.1768 2.26434C3.11742 4.0913 2.51039 6.21644 2.51039 8.48313C2.51039 12.7749 4.68375 16.5609 7.98656 18.7793C6.03176 18.7178 4.11996 18.1873 2.41078 17.2319C2.41008 17.2838 2.41008 17.3356 2.41008 17.3876C2.41008 23.381 6.6532 28.3807 12.2843 29.5172C10.4716 30.0126 8.57022 30.0851 6.72539 29.7291C8.29172 34.6436 12.8379 38.2198 18.2243 38.3199C14.0114 41.6375 8.70352 43.6152 2.93648 43.6152C1.94273 43.6152 0.963047 43.5565 0 43.4423C5.44758 46.9521 11.918 49 18.8695 49C41.5118 49 53.8931 30.1507 53.8931 13.8043C53.8931 13.2678 53.8814 12.7344 53.8575 12.204C56.2674 10.4533 58.3475 8.28486 60 5.80051Z" fill="#55ACEE"/>
</svg>
